<svg width="42" height="43" viewBox="0 0 42 43" fill="none" xmlns="http://www.w3.org/2000/svg">
<path d="M11.3751 18.008C10.9849 18.008 10.6104 18.0675 10.2376 18.1218C10.3584 17.7158 10.4826 17.3028 10.6821 16.9318C10.8816 16.3928 11.1931 15.9255 11.5029 15.4548C11.7619 14.9455 12.2186 14.6008 12.5546 14.165C12.9064 13.7415 13.3859 13.4598 13.7656 13.108C14.1384 12.7405 14.6266 12.5568 15.0151 12.2978C15.4211 12.065 15.7746 11.8078 16.1526 11.6853L17.0959 11.2968L17.9254 10.952L17.0766 7.56055L16.0319 7.81255C15.6976 7.89655 15.2899 7.99455 14.8261 8.1118C14.3519 8.1993 13.8461 8.43905 13.2826 8.6578C12.7261 8.9063 12.0821 9.0743 11.4836 9.4733C10.8816 9.8548 10.1869 10.1733 9.57438 10.6843C8.98113 11.211 8.26538 11.6678 7.73688 12.338C7.15938 12.9645 6.58888 13.6225 6.14613 14.3715C5.63338 15.0855 5.28513 15.8695 4.91763 16.6448C4.58513 17.42 4.31738 18.2128 4.09863 18.9828C3.68388 20.5263 3.49838 21.9928 3.42663 23.2475C3.36713 24.504 3.40213 25.5488 3.47563 26.3048C3.50188 26.6618 3.55088 27.0083 3.58588 27.248L3.62963 27.542L3.67513 27.5315C3.98639 28.9855 4.70291 30.3216 5.74182 31.3854C6.78072 32.4491 8.09956 33.197 9.54575 33.5425C10.9919 33.888 12.5064 33.817 13.914 33.3378C15.3215 32.8585 16.5646 31.9905 17.4994 30.8343C18.4343 29.678 19.0227 28.2808 19.1966 26.8041C19.3705 25.3274 19.1228 23.8316 18.4821 22.4898C17.8414 21.148 16.834 20.0151 15.5763 19.2219C14.3186 18.4288 12.862 18.0079 11.3751 18.008ZM30.6251 18.008C30.2349 18.008 29.8604 18.0675 29.4876 18.1218C29.6084 17.7158 29.7326 17.3028 29.9321 16.9318C30.1316 16.3928 30.4431 15.9255 30.7529 15.4548C31.0119 14.9455 31.4686 14.6008 31.8046 14.165C32.1564 13.7415 32.6359 13.4598 33.0156 13.108C33.3884 12.7405 33.8766 12.5568 34.2651 12.2978C34.6711 12.065 35.0246 11.8078 35.4026 11.6853L36.3459 11.2968L37.1754 10.952L36.3266 7.56055L35.2819 7.81255C34.9476 7.89655 34.5399 7.99455 34.0761 8.1118C33.6019 8.1993 33.0961 8.43905 32.5326 8.6578C31.9779 8.90805 31.3321 9.0743 30.7336 9.47505C30.1316 9.85655 29.4369 10.175 28.8244 10.686C28.2311 11.2128 27.5154 11.6695 26.9869 12.338C26.4094 12.9645 25.8389 13.6225 25.3961 14.3715C24.8834 15.0855 24.5351 15.8695 24.1676 16.6448C23.8351 17.42 23.5674 18.2128 23.3486 18.9828C22.9339 20.5263 22.7484 21.9928 22.6766 23.2475C22.6171 24.504 22.6521 25.5488 22.7256 26.3048C22.7519 26.6618 22.8009 27.0083 22.8359 27.248L22.8796 27.542L22.9251 27.5315C23.2364 28.9855 23.9529 30.3216 24.9918 31.3854C26.0307 32.4491 27.3496 33.197 28.7958 33.5425C30.2419 33.888 31.7564 33.817 33.164 33.3378C34.5715 32.8585 35.8146 31.9905 36.7494 30.8343C37.6843 29.678 38.2727 28.2808 38.4466 26.8041C38.6205 25.3274 38.3728 23.8316 37.7321 22.4898C37.0914 21.148 36.084 20.0151 34.8263 19.2219C33.5686 18.4288 32.112 18.0079 30.6251 18.008Z" fill="#333333" fill-opacity="0.2"/>
</svg>
